@startuml Boss 5 - Ironhead
[*] --> 0000

0000: Start
0000 --> 0100

0100: Hide at edge of screen
0100 -[dashed]-> 0101

0101: Spawn Porcupine every 4 ticks
0101 --> 0250 : After 50 ticks

0250: Start swimming
0250 -[dashed]-> 0251

0251: Swimming
0251 --> 0100 : Reached edge of screen

1000: Start dying
1000 -[dashed]-> 1001

1001: Float off-screen


@enduml